<svg version="1.1" id="Layer_1" xmlns="http://www.w3.org/2000/svg" xmlns:xlink="http://www.w3.org/1999/xlink" x="0px" y="0px"
	 width="100%" viewBox="0 0 624 624" enable-background="new 0 0 624 624" xml:space="preserve">
<path fill="#000000" opacity="1.000000" stroke="none" 
	d="
M100.633812,277.076202 
	C98.346329,257.791351 102.128113,240.434891 114.138023,225.479370 
	C117.920761,220.768829 118.290924,217.309677 115.067299,211.936905 
	C93.734108,176.381195 80.218933,137.925720 74.024887,96.943596 
	C71.123688,77.748123 70.184189,58.505062 74.689995,39.363590 
	C75.493370,35.950741 76.577179,32.627945 78.180077,29.495674 
	C83.898499,18.321095 94.846901,13.401184 107.057861,16.363541 
	C110.987610,17.316891 114.694611,18.761862 118.185768,20.723579 
	C148.523178,37.770500 180.808655,50.267307 213.508316,61.854511 
	C229.536606,67.534180 245.197815,74.142258 259.835510,82.915451 
	C262.019470,84.224434 263.994171,84.371147 266.437286,83.830818 
	C289.734161,78.678413 313.270020,77.651337 336.975677,80.092583 
	C338.860626,80.286697 340.557373,80.247887 342.190338,79.068581 
	C369.788330,59.137859 401.060577,45.912811 431.102051,30.447289 
	C446.654694,22.440718 462.280090,14.563275 478.368439,7.668108 
	C484.811737,4.906631 491.455566,2.255716 498.611298,3.156825 
	C509.444763,4.521067 516.910278,10.768694 521.226868,20.650488 
	C528.183289,36.575508 529.898682,53.464027 529.050720,70.549446 
	C527.544678,100.895042 523.556152,130.893021 514.124146,159.938492 
	C512.015686,166.431396 509.796844,172.900467 507.292786,179.247955 
	C505.967926,182.606247 506.391571,184.998947 508.697449,187.856277 
	C531.789734,216.471085 537.297546,248.602524 527.178040,283.623962 
	C526.321899,286.586792 527.193787,288.834229 528.124084,291.258057 
	C535.664734,310.904999 541.429993,331.046234 544.688660,351.846527 
	C546.000549,360.220337 547.478821,368.613251 547.330322,377.146210 
	C547.287354,379.619263 547.925964,381.638184 549.654175,383.477875 
	C554.606995,388.750000 556.730530,395.219360 556.202026,402.282715 
	C555.697937,409.019135 554.743591,415.681610 554.555420,422.493225 
	C554.217529,434.726532 549.097412,445.729340 543.537292,456.421783 
	C542.085693,459.213440 541.680298,461.661560 542.676697,464.880371 
	C544.849060,471.898163 544.187073,479.216827 539.531250,484.857574 
	C533.088745,492.662964 529.205811,501.919250 523.546143,510.131378 
	C512.649536,525.942200 500.947205,541.058228 487.300354,554.625977 
	C467.587799,574.224304 443.277283,582.793701 416.091034,584.225403 
	C406.288147,584.741638 396.420166,584.965210 386.655640,583.403015 
	C382.653015,582.762573 380.414276,583.845764 378.716644,587.928711 
	C372.563599,602.727051 360.877991,609.600586 345.119385,610.443298 
	C337.421387,610.854858 329.806885,610.642029 322.244080,609.233032 
	C320.026398,608.819885 318.005035,609.046692 315.888214,609.721008 
	C304.006012,613.505676 291.874542,613.600281 279.845337,611.031555 
	C266.584137,608.199707 257.739227,599.443787 252.797684,587.257507 
	C249.152557,578.268311 246.534546,569.218872 234.989807,567.340271 
	C232.638199,566.957520 230.134262,564.789124 228.587341,562.765869 
	C225.623718,558.889832 221.663193,557.856567 217.297089,557.566956 
	C209.082657,557.022156 201.190887,555.052185 193.440048,552.432678 
	C191.462128,551.764160 189.720398,551.680786 187.686874,552.481873 
	C180.542542,555.296265 173.218735,555.019592 166.198685,552.300415 
	C161.954880,550.656738 157.788727,549.758484 153.256561,549.430115 
	C141.145859,548.552612 132.067307,540.455505 130.810425,528.461121 
	C130.122818,521.899109 127.120399,519.530151 121.370094,517.285889 
	C90.655083,505.298126 67.706055,485.641327 61.214062,451.571625 
	C56.893745,428.898865 60.430218,406.818115 68.704666,385.430420 
	C77.608521,362.415863 91.049309,341.920380 104.354080,321.348816 
	C106.071022,318.694122 107.613525,315.921631 109.144669,313.152740 
	C112.688347,306.744415 111.507706,300.629852 107.493622,294.989166 
	C103.725449,289.694092 101.461800,283.917664 100.633812,277.076202 
M369.948059,71.488518 
	C361.983093,76.028046 354.064667,80.694031 346.930664,86.446350 
	C343.717163,89.037491 340.560028,89.536888 336.771759,89.082382 
	C331.157135,88.408752 325.527374,87.705063 319.884430,87.452415 
	C301.294952,86.620132 282.976440,88.743668 264.891998,93.018723 
	C262.380249,93.612495 260.160797,93.651573 257.788116,92.079720 
	C246.762375,84.775391 234.839111,79.150299 222.467438,74.615547 
	C184.294220,60.623466 146.124146,46.661190 110.455338,26.806179 
	C108.137802,25.516125 105.609207,24.608789 102.907501,24.307333 
	C93.622627,23.271318 86.346413,28.929178 83.474136,39.974255 
	C77.888855,61.451939 80.033241,83.003281 83.916191,104.375496 
	C91.108772,143.964249 105.145508,180.995300 127.102097,214.836136 
	C129.640656,218.748718 129.622116,221.213837 126.253281,224.614105 
	C115.958344,235.005112 109.754250,247.511093 108.597885,262.253418 
	C107.844162,271.862457 108.490395,281.104889 114.233620,289.530426 
	C119.576950,297.369293 122.003189,305.965942 117.701950,315.235291 
	C116.374039,318.096985 114.870216,320.898254 113.211472,323.581635 
	C105.329460,336.332428 96.865135,348.719086 89.576698,361.841858 
	C76.035034,386.223419 66.203651,411.560425 68.234314,440.207550 
	C69.073685,452.048889 71.851418,463.279602 78.264000,473.299713 
	C90.998840,493.198761 109.752716,504.883301 131.919708,511.697662 
	C134.580154,512.515564 137.488388,512.647156 139.920258,514.584839 
	C139.653641,516.071228 139.429016,517.535156 139.125504,518.982483 
	C136.413040,531.917603 144.616211,541.580383 157.672623,540.640564 
	C160.299866,540.451477 162.516083,540.941467 164.799896,542.213562 
	C172.076065,546.266296 179.555862,547.312073 187.128372,542.960083 
	C189.315109,541.703308 191.298065,542.384033 193.335266,543.186951 
	C203.507507,547.196411 214.080017,549.312134 224.987091,549.654114 
	C227.715012,549.739685 229.577820,550.572083 231.228836,552.881958 
	C235.629456,559.038818 241.591232,562.810242 249.367096,562.620361 
	C252.781372,562.536987 253.574799,564.470642 254.275482,567.024597 
	C256.309174,574.437195 259.027588,581.568726 262.830688,588.284241 
	C267.096558,595.816956 273.380371,600.531189 281.767609,602.627136 
	C289.013397,604.437805 296.801697,605.403198 303.539368,603.258484 
	C315.450012,599.467346 327.086914,601.649719 338.897491,601.789978 
	C358.973999,602.028320 366.905884,596.398560 373.464325,577.552246 
	C374.689514,574.031433 376.427185,573.318481 379.702179,573.846680 
	C394.921326,576.300903 410.214874,576.695129 425.490814,574.610107 
	C445.580994,571.867920 463.979614,564.983521 478.829346,550.672241 
	C496.801422,533.351929 512.051147,513.842346 524.269775,492.035065 
	C526.145996,488.686554 528.091919,485.479980 530.625977,482.534241 
	C535.159424,477.264282 537.324097,471.224426 533.417725,464.670013 
	C531.697632,461.783905 532.072327,459.655823 533.576294,456.904144 
	C539.257263,446.510040 545.255249,435.966644 545.948730,423.956543 
	C546.412781,415.919647 547.001465,407.907227 547.626953,399.882690 
	C547.995789,395.150482 545.754456,391.138306 541.951660,388.216400 
	C540.129211,386.816193 538.965820,385.329926 538.952637,382.848297 
	C538.794739,353.140656 531.679443,324.810028 521.261597,297.258545 
	C518.505615,289.970032 518.366516,283.801117 520.383606,275.983887 
	C528.175842,245.784286 522.458252,217.629456 502.176941,193.634583 
	C496.740143,187.202316 496.341553,182.745438 499.259338,175.436768 
	C515.473938,134.821365 522.261963,92.542442 519.599731,48.868267 
	C519.000366,39.035526 516.796448,29.364038 511.419708,20.847111 
	C506.350403,12.817243 498.950775,10.095441 489.927673,12.794592 
	C486.110718,13.936403 482.313141,15.313273 478.732819,17.049540 
	C442.465240,34.637573 406.118134,52.069729 369.948059,71.488518 
z"/>
<path fill="#000000" opacity="1.000000" stroke="none" 
	d="
M397.937744,562.296387 
	C389.389160,561.235718 381.295288,560.227905 373.209625,559.158081 
	C367.207916,558.363953 365.265808,559.568115 363.171021,565.420837 
	C361.319580,570.593872 359.410889,575.746460 357.509674,580.901489 
	C355.818115,585.487976 352.518188,588.137268 347.809723,589.415710 
	C339.868164,591.571960 331.978790,591.324280 324.111786,589.281799 
	C319.383362,588.054138 316.842804,584.293640 317.880066,579.420288 
	C319.492737,571.843445 316.508240,565.115112 314.655823,558.120789 
	C313.843353,564.341309 313.992432,570.518555 314.895477,576.687073 
	C315.940735,583.827087 314.114288,586.933044 307.374542,589.238647 
	C300.105042,591.725464 292.639465,591.854492 285.150024,590.636841 
	C280.644806,589.904297 277.332550,587.402527 274.900513,583.406433 
	C269.493347,574.521851 265.679779,564.952332 262.078674,555.258118 
	C259.863647,549.295227 259.071686,549.072327 253.616089,552.062561 
	C248.080322,555.096619 241.802597,552.340759 239.229340,545.746887 
	C235.538116,536.288269 235.547699,536.469666 225.541336,536.997986 
	C214.678116,537.571533 204.379486,534.916138 194.514465,530.527649 
	C189.764145,528.414429 185.442322,526.866394 180.779343,531.298462 
	C178.264038,533.689209 174.409088,532.683044 171.181992,531.673767 
	C166.236282,530.127075 161.402878,528.542053 156.071075,530.190430 
	C153.676514,530.930786 151.262390,529.892029 150.254593,527.423767 
	C148.636459,523.460632 147.678452,519.237976 150.974670,515.669922 
	C153.762024,512.652771 156.990219,510.042755 159.998703,507.275146 
	C157.642883,503.452515 154.493240,503.767365 151.622543,503.373749 
	C127.026459,500.001251 106.372543,489.053162 89.988701,470.475952 
	C80.598396,459.828583 78.645805,446.677368 79.289749,432.993591 
	C80.185059,413.968323 86.866287,396.631012 94.871582,379.661285 
	C101.713516,365.157715 110.210663,351.611694 118.522354,337.948090 
	C123.714279,329.413055 129.699158,321.054321 131.723587,311.183197 
	C133.622040,301.926422 133.251694,292.452332 126.910049,284.363800 
	C122.293892,278.476044 121.986237,253.787079 126.946381,248.359879 
	C129.915543,245.111130 131.694443,241.604187 132.454422,237.471832 
	C133.505081,231.758865 136.525803,227.687973 141.943726,225.549149 
	C146.479462,223.758591 146.419205,220.899628 144.243866,217.239197 
	C135.565414,202.636002 126.271225,188.376434 119.277939,172.826004 
	C106.825127,145.135651 98.712158,116.209969 94.726196,86.127106 
	C92.951553,72.733467 91.731369,59.308563 93.650925,45.808243 
	C93.744705,45.148655 93.767372,44.477478 93.886253,43.823158 
	C95.856079,32.981319 97.872627,32.183788 107.192444,37.642208 
	C128.981583,50.403648 152.381104,59.642502 175.826950,68.804482 
	C198.304321,77.588013 221.372070,85.046753 242.265594,97.503006 
	C245.840820,99.634476 249.649292,101.544373 252.763092,104.235664 
	C256.365417,107.349174 259.811554,107.601143 264.209961,106.418510 
	C288.675629,99.840210 313.519653,98.963158 338.537415,102.329308 
	C343.652924,103.017593 347.708862,102.162727 351.804962,98.661743 
	C365.946960,86.574440 382.158081,77.605453 398.468445,68.852356 
	C421.991058,56.228725 446.419891,45.586624 471.182312,35.673252 
	C479.241760,32.446739 487.112976,28.803026 494.105530,23.572130 
	C497.734680,20.857252 500.158234,22.066385 502.286774,25.459408 
	C507.002014,32.975788 508.108582,41.485195 508.044586,49.962536 
	C507.730591,91.577003 502.115448,132.288528 486.144928,171.098389 
	C485.384247,172.946899 484.603638,174.788177 483.889252,176.654587 
	C479.437500,188.285004 479.050140,190.032990 488.519165,198.078140 
	C500.104218,207.921097 503.826294,221.178574 507.084900,234.757935 
	C508.858978,242.151108 509.226135,249.893921 510.057983,257.497620 
	C510.805634,264.331604 507.684479,270.277588 504.697968,275.954315 
	C501.784851,281.491577 501.940277,286.207367 504.418365,291.889160 
	C515.027039,316.212769 523.793579,341.160370 527.660339,367.573090 
	C528.722473,374.828308 529.407898,382.135925 529.058044,389.477264 
	C528.872803,393.366241 530.155212,395.813354 534.176880,396.697357 
	C538.322205,397.608582 539.132019,399.645203 536.700256,403.481018 
	C534.401001,407.107758 532.859924,411.221924 531.062317,415.156830 
	C530.253418,416.927521 529.775940,418.837067 532.293701,419.656586 
	C535.886963,420.826233 535.021973,423.185638 534.104675,425.656189 
	C530.391113,435.657867 526.320618,445.497925 521.380005,454.972839 
	C517.188232,463.011597 517.295044,463.013214 524.237793,468.889557 
	C526.102661,470.467987 528.362671,471.796783 529.039124,474.394836 
	C528.880493,474.762451 528.836060,475.214447 528.607910,475.344727 
	C512.145813,484.744720 503.397461,501.142517 492.449493,515.476562 
	C481.003204,530.463013 468.494568,544.127991 451.307831,552.655090 
	C434.613953,560.937683 416.861816,563.633972 397.937744,562.296387 
M199.274582,479.098328 
	C197.110443,479.146484 195.113647,481.103271 191.889877,479.568481 
	C197.754120,474.564423 203.227890,470.061768 208.508987,465.343506 
	C214.796188,459.726410 220.505081,453.589203 221.553925,444.707001 
	C223.086899,431.724915 218.729675,419.861145 214.111435,406.528198 
	C211.641647,416.803192 209.833694,425.781281 205.085449,433.741577 
	C200.349350,441.681519 194.849670,448.905670 186.150955,455.253998 
	C188.696701,446.665497 192.808670,439.599091 189.051895,430.687286 
	C182.816559,444.366943 172.443863,454.129669 165.255020,466.098175 
	C162.589157,470.536499 160.270813,475.174438 159.382034,480.339081 
	C158.060669,488.017548 164.513245,496.121033 172.144699,496.516663 
	C165.813797,478.649780 165.545212,477.145752 167.821167,471.676147 
	C168.351242,473.211151 168.788773,474.619720 169.319229,475.992401 
	C174.954437,490.574677 195.040421,500.290009 209.881271,495.624573 
	C215.783951,493.769012 219.106186,489.843842 219.306641,484.463684 
	C217.665527,483.858124 216.459167,485.027191 215.122375,485.548889 
	C208.857193,487.994080 202.458069,488.146851 195.968948,486.745087 
	C194.701492,486.471283 193.257263,486.260742 193.030075,484.531097 
	C192.813019,482.878510 193.993454,482.131348 195.145676,481.473022 
	C196.719009,480.574158 198.368607,479.808807 200.769806,478.930389 
	C209.059296,477.211212 216.159851,473.575134 221.090820,466.455475 
	C217.337357,469.925598 213.179962,472.777161 208.515182,475.005402 
	C205.686905,476.356384 202.413177,476.780975 199.274582,479.098328 
M174.204468,442.888092 
	C175.812927,444.119049 177.194931,443.989990 178.291031,442.199127 
	C179.320557,440.516998 180.363037,438.842377 181.365112,437.143982 
	C185.484711,430.161957 185.207336,429.591705 177.042389,428.628510 
	C175.797714,432.469482 172.246338,435.147949 170.674606,439.178833 
	C168.188522,438.305634 166.619720,436.283936 164.986252,434.429871 
	C155.907593,424.125305 145.989548,414.820129 133.903183,408.083679 
	C132.192413,407.130157 131.870453,405.715668 131.600647,403.989471 
	C129.926804,393.280975 131.454514,382.742188 133.254776,372.235962 
	C136.335068,354.259583 142.147705,337.108765 149.185699,320.335663 
	C150.069458,318.229523 151.350449,316.070862 150.331512,312.942566 
	C149.360977,314.160553 148.778061,314.750702 148.357864,315.440033 
	C136.927902,334.190735 125.244232,352.793945 114.181183,371.759064 
	C104.782318,387.871277 96.238716,404.472656 91.997208,422.861420 
	C88.518806,437.941803 89.086800,452.398987 99.739716,464.833221 
	C109.299316,475.991333 121.681923,483.032379 135.183868,488.308350 
	C136.102554,488.667328 137.081055,488.984741 138.093658,487.943115 
	C108.196922,454.642426 104.924240,417.302460 121.978104,377.033813 
	C121.978104,378.636200 122.186974,380.294220 121.943748,381.883026 
	C120.509941,391.248932 121.515938,400.498749 123.436752,409.642578 
	C127.252167,427.805481 136.947113,441.323181 154.877029,447.890869 
	C158.265808,449.132141 161.837799,450.562134 165.944122,449.222229 
	C163.700348,446.025269 159.426041,445.417572 157.970291,441.098328 
	C162.187088,443.225708 165.650909,445.205963 169.298615,446.752411 
	C173.509720,448.537720 174.403305,447.594879 174.204468,442.888092 
M357.624512,243.228149 
	C367.730652,254.098129 376.388184,266.333405 389.013672,276.364563 
	C391.420105,216.279388 370.717438,167.959137 321.821503,132.451050 
	C328.842041,134.599594 333.164368,140.106583 339.689240,145.000809 
	C335.207733,138.419769 329.802429,134.866318 324.558838,130.488129 
	C327.782074,129.155106 329.510559,130.491501 331.266144,131.244766 
	C340.989532,135.416656 348.935852,142.017105 355.318054,150.283997 
	C371.752502,171.571762 380.593048,196.236435 386.277588,222.178375 
	C388.217346,231.030716 389.632507,239.998016 391.473053,249.912964 
	C391.717194,246.682465 392.952789,245.294388 394.992584,244.522980 
	C405.543182,240.533005 416.096313,236.549454 426.631073,232.517944 
	C429.837860,231.290741 431.718719,232.443161 432.764160,235.538849 
	C434.042664,239.324539 435.208588,243.162415 436.748199,246.841736 
	C438.260010,250.454651 437.067413,252.545441 433.694580,253.905731 
	C423.970703,257.827454 414.226074,261.700317 404.553009,265.744141 
	C400.459015,267.455627 398.405029,265.934174 396.961395,262.117310 
	C395.840698,259.154327 395.607819,255.696381 392.072998,252.391144 
	C393.231689,287.507599 390.572693,320.663544 367.325958,348.538666 
	C381.582001,345.437805 391.639771,336.543427 400.476776,325.710815 
	C399.862671,330.374695 397.071655,333.782745 394.013641,336.533600 
	C389.379059,340.702698 386.686127,345.766968 384.241486,351.334839 
	C375.047485,372.274750 362.701355,390.785492 342.685303,403.088928 
	C342.102295,403.447327 341.827240,404.097198 342.216003,404.917389 
	C343.244751,406.096039 344.542755,405.741913 345.810638,405.280884 
	C367.080963,397.546478 386.708252,387.495239 398.689545,366.593933 
	C399.750183,368.214661 399.203033,368.954987 398.837158,369.629395 
	C395.719696,375.374969 391.349335,380.222626 387.516968,385.460907 
	C378.936584,397.188965 371.513000,409.346771 375.088257,424.982819 
	C375.477661,426.685822 375.110413,428.658997 374.722778,430.425354 
	C373.220734,437.269745 375.003540,443.286652 379.058411,448.776520 
	C384.177063,455.706604 391.162415,460.124603 399.022034,463.242126 
	C403.093384,464.857025 407.164185,466.756897 412.311188,466.369080 
	C409.126251,452.094879 397.527527,440.545746 401.027252,424.904663 
	C400.416351,442.849182 414.219025,455.857147 416.608429,473.006042 
	C419.975311,471.856537 421.292358,468.398468 425.628876,467.224640 
	C418.811035,476.960327 410.252045,482.020264 400.620880,485.606598 
	C390.840607,489.248474 381.097992,489.796692 370.479706,484.112671 
	C376.710022,491.636353 383.161926,495.086121 391.866058,493.901093 
	C398.900299,492.943359 405.453003,490.787689 411.802734,487.728485 
	C418.841095,484.337555 424.768524,479.334778 430.629028,474.383820 
	C433.217407,477.087250 431.608856,480.018646 432.133759,482.816986 
	C440.254150,472.989075 439.109253,455.745178 429.281525,443.111298 
	C430.358917,447.752228 430.902985,451.745483 429.223267,455.642883 
	C427.777496,450.425201 427.308807,445.114441 424.885223,440.288025 
	C419.814606,430.190216 409.473358,423.894531 405.989685,412.310944 
	C402.968292,415.078857 402.675781,418.184601 401.248291,420.783264 
	C400.857483,419.769531 400.680511,418.814575 400.782776,417.890533 
	C401.595703,410.544708 405.244537,404.363281 408.985931,398.236816 
	C422.636444,375.884277 433.191559,352.295929 437.868317,326.335297 
	C438.085571,325.129242 438.359924,323.771454 440.068146,322.732117 
	C439.746887,330.724182 441.321808,338.294464 441.219055,345.913696 
	C441.048920,358.529694 441.408325,371.290100 434.656616,382.827026 
	C432.066650,387.252594 429.138855,391.428864 426.162811,395.595337 
	C429.938385,392.884552 432.563110,389.257751 434.809601,385.346985 
	C442.496368,371.965851 444.251770,357.058929 445.712311,342.117584 
	C447.599670,322.809845 446.459137,303.551117 444.865356,284.263000 
	C442.340698,253.708740 434.892029,224.503006 421.337799,197.025894 
	C402.798065,159.442093 376.495453,130.182510 334.483307,118.393501 
	C333.683929,118.169182 332.418365,118.192604 332.666840,116.186172 
	C358.668976,121.561920 379.323761,135.745773 397.601837,154.974258 
	C411.741943,135.739899 422.818939,115.400780 437.319824,97.159065 
	C434.075562,96.190712 432.152405,99.091293 429.452484,98.812363 
	C429.614960,96.442978 431.268829,95.367813 432.413300,94.005592 
	C447.542603,75.997673 465.455078,61.130627 484.908539,48.094273 
	C488.812531,45.478046 490.421112,42.017189 492.129089,37.229282 
	C477.400513,45.547306 462.758179,51.985325 448.336884,58.870636 
	C414.335663,75.104202 380.486755,91.589119 350.228699,114.420532 
	C348.290985,115.882645 346.354523,115.989738 344.128479,115.269455 
	C335.987701,112.635307 327.572388,111.457161 319.064697,111.314713 
	C277.223938,110.614159 239.372375,120.141647 210.976944,153.777618 
	C205.647827,160.090240 200.506012,166.489563 196.237900,174.029160 
	C200.720718,175.674271 204.414780,174.231842 208.123566,173.889755 
	C210.890076,173.634567 213.976654,173.475403 214.389496,177.053787 
	C214.856842,181.104797 215.050919,185.096436 211.056168,188.307922 
	C199.896133,197.279816 189.084991,206.684235 178.031860,215.791367 
	C174.016495,219.099777 171.486511,222.998703 170.246246,228.148422 
	C165.604752,247.420120 161.565659,266.796844 158.776291,286.428589 
	C155.061539,312.573303 153.820419,338.793457 156.317719,365.128265 
	C156.438065,366.397430 156.229813,367.915344 158.460403,369.179993 
	C154.620651,353.636200 159.324356,339.102509 160.066635,323.590790 
	C161.879349,325.086304 162.021332,326.394745 162.159439,327.680817 
	C163.604248,341.136475 167.029816,354.166779 170.698441,367.136963 
	C175.963745,385.752258 183.643860,403.525726 189.870804,421.806580 
	C192.849518,430.551331 194.178268,439.393860 190.645737,448.915100 
	C199.114273,440.816528 205.115738,431.920868 207.863739,421.179016 
	C210.151581,412.235870 213.255722,402.962769 203.982452,395.669250 
	C203.515549,395.302002 203.147110,394.627563 203.987640,393.317352 
	C214.310043,404.118591 225.460434,413.630890 240.461761,417.569885 
	C218.312622,395.002960 206.542862,367.460083 200.194382,336.967896 
	C210.940384,346.267609 221.749939,355.019501 237.783615,355.969543 
	C235.496857,354.047272 234.120712,352.859894 232.712631,351.711670 
	C222.187622,343.129120 214.155319,332.659576 208.815826,320.153748 
	C198.126968,295.118927 195.716446,269.073090 199.372604,242.301956 
	C203.205002,214.240280 211.512558,187.745789 227.327362,163.980804 
	C234.581284,153.080322 242.880585,143.124161 254.781250,136.891479 
	C256.096161,136.202820 257.414948,134.887512 259.839294,136.378494 
	C250.189880,143.944519 244.983444,154.658051 237.242447,163.255966 
	C207.066330,196.772629 196.899124,236.303101 201.518051,280.325623 
	C202.069534,285.581787 202.347275,291.124115 205.998978,297.381775 
	C211.182449,280.539886 217.541458,265.491028 216.780228,248.387268 
	C218.755920,249.297318 217.487762,251.251480 219.716629,251.099350 
	C219.490509,238.879044 219.461884,226.608078 223.502213,214.783188 
	C222.234787,226.858536 221.847015,238.938568 222.177505,251.042374 
	C222.585251,265.975739 226.686371,282.729126 230.484390,285.168579 
	C231.297958,284.567169 231.209091,283.760254 230.988739,282.931152 
	C228.544006,273.731995 227.616150,264.284302 226.314438,254.892792 
	C225.529739,249.231277 228.161301,246.779694 234.331848,247.783768 
	C227.350571,252.661865 226.810455,254.610321 230.218628,263.218689 
	C232.936096,270.082428 236.823502,276.294342 241.170349,282.213318 
	C245.252304,287.771606 249.995239,288.519531 256.147552,284.788330 
	C253.451874,273.640198 249.018097,262.919952 247.719208,251.401733 
	C249.705841,252.846725 249.852844,255.006424 250.351425,257.035309 
	C252.753159,266.809021 256.379150,276.058044 261.980133,284.490631 
	C263.898193,287.378418 265.806824,288.654022 269.755310,287.852234 
	C284.115265,284.936218 298.658783,282.207642 313.259644,281.987885 
	C326.621704,281.786804 323.556763,283.021057 327.648499,269.062927 
	C327.740723,268.748322 327.684937,268.391876 327.766357,268.072357 
	C329.292206,262.082703 329.321106,255.852890 331.131378,249.799988 
	C331.453094,256.990173 331.774841,264.180359 332.099518,271.436920 
	C337.876801,269.818756 340.234924,250.523056 338.531433,215.675720 
	C337.578461,196.180939 333.280518,177.306778 324.352570,158.787018 
	C327.254272,159.936844 327.877045,161.539703 328.541351,162.999771 
	C333.038452,172.883957 336.077087,183.199768 338.517639,193.797165 
	C340.520172,202.492538 339.829254,211.616119 344.007782,220.028763 
	C347.944550,227.954544 353.157684,235.086517 356.382751,242.706299 
	C355.763214,242.150970 355.161285,241.574417 354.521210,241.043884 
	C351.295105,238.369995 347.253632,238.030426 343.703186,239.021622 
	C340.866730,239.813477 341.638184,243.550385 341.291840,246.091202 
	C340.506378,251.853912 340.049469,257.665588 339.130798,263.404846 
	C338.095123,269.874664 338.312683,270.326843 344.937866,269.372742 
	C352.153503,268.333649 359.194733,269.485657 366.240906,270.720551 
	C367.223816,270.892822 368.680328,270.830353 368.532990,272.567047 
	C367.161316,273.475159 365.896912,272.599915 364.648132,272.405243 
	C356.542328,271.141510 348.448303,270.596954 340.318329,272.226807 
	C338.192200,272.653046 336.451538,273.252136 336.829132,276.541260 
	C342.761932,275.710571 348.618164,274.393616 354.568665,274.993225 
	C363.229584,275.865967 371.599640,277.877686 379.715668,281.093872 
	C382.082825,282.031921 384.714508,284.058258 388.072510,281.131104 
	C383.282623,275.853729 378.487427,270.850128 374.014008,265.573700 
	C367.913361,258.377960 360.840118,251.889359 357.624512,243.228149 
M514.476868,446.034302 
	C517.898132,440.015839 521.152100,433.931549 522.594299,427.474243 
	C520.533264,425.430420 517.942505,426.787415 516.501648,424.611877 
	C517.562256,418.594452 521.328491,413.242310 522.346130,406.849487 
	C519.186096,406.950500 519.209412,409.422791 518.527649,411.067078 
	C515.932312,417.326691 512.701721,423.052856 506.748718,426.774719 
	C495.577728,433.758972 483.348999,435.936157 470.389618,434.777100 
	C459.206024,433.776947 449.104523,428.239410 437.972931,427.023773 
	C433.475800,426.532715 429.208679,427.257233 424.568878,429.391113 
	C426.353760,431.667816 427.644196,433.598816 429.216736,435.263306 
	C433.059875,439.331268 435.839539,444.062042 437.871002,449.196167 
	C441.620605,458.672394 443.721985,468.373016 439.996918,478.381134 
	C437.422668,485.297272 431.941620,488.976776 425.562805,488.257629 
	C426.083954,485.098694 429.119781,482.821381 428.936462,479.233795 
	C413.875153,491.831940 411.403015,493.015411 390.089050,497.069672 
	C387.214386,497.616455 387.224121,499.423737 387.358459,501.459900 
	C387.523712,503.964417 386.880737,505.655212 383.717224,505.125061 
	C385.201782,508.369324 387.253723,510.925018 386.671112,514.454895 
	C382.896973,513.997375 382.628876,509.624725 379.313812,508.381744 
	C379.159393,511.416565 379.020386,514.147888 378.860382,517.292175 
	C376.005646,516.577087 374.621613,514.638611 373.048492,513.027588 
	C371.926361,511.878296 370.923828,511.212860 369.132477,511.779938 
	C363.161011,513.670288 361.293335,516.494568 362.619873,522.595520 
	C363.182312,525.182190 363.881134,527.834595 365.095642,530.154785 
	C366.122467,532.116394 365.685364,533.316040 364.478027,534.135132 
	C366.655121,539.299866 371.753845,537.772156 375.327057,539.611328 
	C385.425018,544.808716 396.201843,547.441772 407.525970,547.606628 
	C418.603882,547.768005 429.737366,546.804077 439.766113,542.040161 
	C449.175018,537.570679 459.378082,534.297852 465.990509,524.810486 
	C471.583252,516.786194 480.291321,511.334106 486.410187,503.589478 
	C491.472107,497.182617 496.733246,490.983765 503.104462,485.784760 
	C498.734436,481.754028 502.797241,479.881287 504.837769,477.957001 
	C507.190186,475.738678 510.056854,474.065735 512.808350,472.077820 
	C509.690918,468.919373 505.622803,470.746338 501.785583,469.353333 
	C503.910065,460.624176 510.351074,454.338074 514.476868,446.034302 
M361.394379,321.074646 
	C364.994171,318.927124 366.995941,315.516663 368.873901,311.925720 
	C370.780273,308.280518 369.940033,305.713409 366.567444,303.500275 
	C358.919189,298.481384 350.635376,298.288757 342.032837,299.852295 
	C339.827454,300.253174 337.661163,301.537476 335.064850,300.388916 
	C334.924774,299.116699 334.737305,297.822845 334.647003,296.522217 
	C334.265930,291.033234 333.391388,290.524841 328.139771,292.462280 
	C325.572723,293.409363 323.223328,295.145905 320.790741,295.116394 
	C316.969269,289.800049 321.480347,287.149597 325.193390,282.809296 
	C304.349640,284.780182 285.293457,287.600464 266.622650,290.629333 
	C265.927063,294.630798 268.715363,296.886902 269.569794,299.796204 
	C267.366455,301.114960 264.964081,299.485168 262.717957,301.150055 
	C263.128143,302.800446 263.594910,304.537048 263.988983,306.289978 
	C265.342163,312.308228 266.831451,318.352142 265.914398,324.567474 
	C265.116241,329.976624 263.446503,335.120209 257.773071,337.407501 
	C251.856277,339.792938 246.323715,338.549377 241.302338,334.828461 
	C238.738434,332.928528 236.555038,330.613617 234.962234,327.837677 
	C234.494003,327.021637 233.250305,325.960999 235.147888,324.709503 
	C237.304581,327.130707 239.227448,329.867676 241.705582,331.940979 
	C245.808014,335.373230 250.612839,337.561829 256.005737,335.344330 
	C261.444183,333.108154 263.002411,328.131866 263.620605,322.781830 
	C263.715729,321.958740 263.560486,321.105255 263.669281,320.285522 
	C264.199463,316.290680 262.166809,313.922607 258.673340,312.677002 
	C250.959732,309.926727 243.641647,310.687378 236.765137,315.320801 
	C235.349838,316.274414 234.409943,318.227600 232.366547,317.887299 
	C230.010925,315.367950 231.556320,311.515503 229.073013,309.054443 
	C225.486206,309.961273 222.316086,312.042786 221.216370,314.943390 
	C218.947220,320.928528 223.958725,325.840759 225.135727,331.720428 
	C219.183945,332.682037 221.117554,335.699158 223.497650,338.555511 
	C225.731674,341.236603 228.069443,343.871246 230.638092,346.224457 
	C234.887848,350.117737 239.359726,353.768555 243.941238,357.695709 
	C238.631241,361.678650 232.812454,357.755371 227.196335,359.093201 
	C227.742599,360.300873 227.844376,361.088013 228.287491,361.421234 
	C234.969040,366.445862 242.962616,367.370453 250.878036,368.476807 
	C251.401779,368.550018 252.203674,368.102966 252.565201,367.649811 
	C259.374237,359.114960 269.120880,354.446198 277.901276,348.559570 
	C283.598297,344.740082 287.046112,345.690552 291.098297,351.147919 
	C294.275909,355.427399 297.553192,359.649323 300.452393,364.113617 
	C302.615051,367.443787 305.296234,368.192078 308.971222,367.444580 
	C318.605255,365.485046 328.182098,363.252716 337.468567,360.058777 
	C345.144165,357.418854 353.634125,356.114227 359.916443,350.684814 
	C371.285828,340.858917 378.519592,328.243988 382.486053,313.859772 
	C381.376587,312.235199 379.756195,314.619873 378.846008,313.061035 
	C380.754791,298.180695 380.754791,298.180695 375.124725,297.037292 
	C373.847351,298.199707 374.325775,299.819397 374.122498,301.241913 
	C373.263397,307.254059 371.514008,312.950684 368.130127,318.039917 
	C363.844086,324.485870 354.920624,327.654205 347.868866,325.332245 
	C340.495392,322.904358 335.145966,315.498322 335.760162,307.548859 
	C340.474152,319.070190 346.656464,327.805725 361.394379,321.074646 
M196.391281,90.182800 
	C167.050156,78.127808 137.142136,67.367088 109.127579,51.846264 
	C112.600449,60.653629 118.759224,67.808731 124.067154,74.933617 
	C134.868546,89.432434 148.393661,101.824402 161.686340,114.221886 
	C162.937271,115.388580 165.078796,116.264626 164.938385,118.740181 
	C160.051926,118.185089 156.822845,114.514992 151.940140,113.318306 
	C152.377563,114.435181 152.484207,115.087173 152.836838,115.552979 
	C165.685867,132.526657 181.471619,146.107712 200.057022,156.476730 
	C202.676071,157.937912 204.052032,156.455383 205.502838,154.723450 
	C214.134872,144.418716 224.429001,136.005035 235.497391,128.492783 
	C239.695068,125.643791 244.005814,122.961403 248.692810,119.926033 
	C232.653824,107.124931 214.922577,98.709846 196.391281,90.182800 
M363.738861,477.473785 
	C366.763489,476.489319 367.763123,480.637970 371.178650,480.278564 
	C368.270020,476.365417 365.701233,472.735992 362.947174,469.253113 
	C360.194580,465.772125 357.256531,462.437714 353.391266,457.839172 
	C354.397552,466.210541 355.177429,473.067993 356.060577,479.912109 
	C356.627014,484.301605 354.525848,489.018280 351.657196,489.471405 
	C346.380646,490.304901 339.997620,484.789093 340.010925,479.409607 
	C340.015015,477.758331 340.011566,476.107086 340.011566,474.098419 
	C333.175842,474.050995 334.677216,467.128540 331.357971,463.148376 
	C330.683441,474.448547 330.374542,485.840149 315.972839,488.815643 
	C312.979950,481.723572 313.106201,474.700073 316.563721,467.783630 
	C317.998047,464.914368 318.156342,462.591339 315.422028,460.288391 
	C305.887451,452.257843 298.456726,442.478455 292.079559,431.827026 
	C291.053802,430.113800 290.273987,427.732727 287.411774,427.949310 
	C287.104065,428.360229 286.638062,428.714813 286.560516,429.140198 
	C286.383179,430.113098 286.364685,431.119781 286.336212,432.114288 
	C286.123657,439.535614 285.086700,440.954834 278.229767,443.358856 
	C276.031219,444.129669 273.911774,445.145599 271.685242,445.812744 
	C267.734436,446.996613 265.305267,449.852051 264.598053,453.546326 
	C261.503815,469.710602 257.194214,485.676239 256.133453,502.187988 
	C255.616196,510.239197 262.299744,515.927612 270.794128,514.691162 
	C268.942413,512.179260 264.345245,513.643250 263.481567,509.856873 
	C265.031677,508.350159 267.016937,510.485748 268.618500,508.386139 
	C264.289764,498.338165 261.259918,487.724731 263.628815,476.332977 
	C263.994995,488.998596 267.080444,500.973480 272.678101,512.307190 
	C273.616943,514.208130 274.364014,516.391724 276.936920,516.814453 
	C286.682587,518.415588 296.361176,517.963745 306.070160,515.699219 
	C301.126709,511.814728 294.735626,516.580811 289.148438,513.063721 
	C293.814484,510.380524 299.231110,512.997009 303.371033,509.612915 
	C296.778290,495.508301 290.475098,481.354706 285.689545,465.376709 
	C288.497314,466.993347 288.565033,468.661926 289.013580,470.003052 
	C292.982880,481.871216 297.999268,493.294556 303.274231,504.626099 
	C304.655975,507.594299 305.978485,510.234619 309.660034,510.425964 
	C308.181793,515.158936 308.975616,516.287964 313.424042,515.541992 
	C318.012421,514.772583 322.594269,513.791504 327.058258,512.489258 
	C336.267059,509.802826 345.252197,506.480988 353.970032,502.398438 
	C353.222260,500.521332 352.023254,500.070770 350.750946,499.708771 
	C348.945221,503.286316 344.495514,505.567932 338.763245,505.792480 
	C338.560364,501.993500 341.173889,498.824707 341.332916,495.290710 
	C341.513763,491.272583 335.860443,490.644287 334.756104,486.011169 
	C340.574677,490.187286 345.456879,494.209137 351.107605,497.103607 
	C358.822815,501.055603 367.249237,498.597198 372.001251,490.765533 
	C369.753174,490.368896 368.244995,493.119293 366.043365,492.238068 
	C364.490479,489.377930 367.478638,486.910400 366.744965,484.145233 
	C364.672516,484.416168 363.279938,486.175659 361.302643,485.418518 
	C361.337402,481.753174 361.337402,481.753174 363.738861,477.473785 
M484.069611,402.174561 
	C483.698029,403.220856 482.738770,404.172028 483.890839,406.009613 
	C489.821442,402.948547 493.404083,397.955261 495.583496,391.949799 
	C499.470428,381.239044 501.394897,370.121490 501.772583,358.727173 
	C501.843292,356.593567 501.298767,354.202179 503.805359,351.665039 
	C504.733307,364.969391 506.614227,377.279633 506.616974,389.755402 
	C506.619751,402.362396 505.657227,414.775055 498.710510,426.704193 
	C507.886017,422.935425 513.593506,416.223602 516.438782,406.387848 
	C520.398621,392.699219 518.876404,378.981384 516.130798,365.367310 
	C510.270691,336.310272 497.231384,310.067352 483.796448,283.998657 
	C482.879547,282.219482 481.907867,280.864044 479.552643,282.050232 
	C477.203918,283.233185 475.803864,284.786743 476.530060,287.579010 
	C477.786713,292.410919 479.077759,297.234131 480.295990,302.075714 
	C483.899628,316.397034 485.957397,331.120056 491.521973,344.925415 
	C493.377838,341.292816 492.137878,337.040222 493.568298,332.597046 
	C496.637238,363.314331 480.815277,397.260529 449.914551,410.310059 
	C450.403534,406.611755 447.856720,406.930634 445.619141,407.046783 
	C435.148743,407.590240 425.907043,411.492340 417.502625,417.564697 
	C416.301971,418.432251 414.944885,419.481354 416.101318,421.261871 
	C417.220032,422.984283 418.570099,424.620361 420.943542,423.936554 
	C424.135956,423.016754 427.233154,421.878571 430.202667,420.281219 
	C434.214233,418.123322 438.441559,416.366486 443.840607,413.847748 
	C441.690338,417.722656 438.121613,418.473969 438.209412,422.955292 
	C460.333038,425.955566 472.886597,411.676788 485.346893,396.787964 
	C485.774750,398.968658 484.852295,400.222931 484.069611,402.174561 
M425.498566,187.077774 
	C427.131592,187.861572 428.961731,188.221161 429.947845,186.448730 
	C431.629639,183.425873 433.879669,184.037216 436.348175,184.902328 
	C442.129089,186.928314 448.123322,187.030930 454.130096,186.696869 
	C459.121826,186.419235 460.245911,184.876785 458.981934,179.906982 
	C458.081482,176.366562 457.415039,172.552826 455.571747,169.510956 
	C451.832153,163.339920 452.883087,159.249786 458.458038,154.575699 
	C463.442993,150.396301 469.867126,143.865463 467.480896,137.971863 
	C464.805573,131.364349 455.863220,129.972046 448.420624,129.093506 
	C446.525787,128.869827 444.371948,129.607468 442.619629,127.471123 
	C444.598724,119.171562 446.168457,110.636375 444.140778,101.326370 
	C439.557281,103.407158 435.243286,104.584656 432.802338,108.523666 
	C422.605713,124.978096 414.040497,142.292419 406.017670,159.885208 
	C405.230957,161.610413 404.713287,163.391159 405.976624,165.097687 
	C411.691467,172.817352 416.142365,181.644318 425.498566,187.077774 
M143.608841,138.027985 
	C140.601852,138.221222 137.712234,138.901199 134.855621,139.873825 
	C130.962479,141.199371 129.614166,143.304520 131.448456,147.387436 
	C134.330566,153.802704 138.437286,159.149765 144.416061,162.795151 
	C147.290848,164.547989 147.896912,166.331558 146.610931,169.319550 
	C144.563522,174.076752 143.595032,179.160446 142.554077,184.212799 
	C141.900589,187.384460 142.878220,189.161636 146.252686,189.948975 
	C150.223038,190.875336 154.347351,191.419678 158.121704,190.524673 
	C164.171402,189.090164 167.941101,190.398239 170.532104,196.303131 
	C171.592728,198.720306 173.792465,201.680298 177.650009,199.694992 
	C181.716858,197.601974 184.256622,193.030121 182.644913,189.537613 
	C180.565842,185.032272 182.456100,180.980316 185.297974,178.759888 
	C189.056747,175.823074 190.657257,171.693893 193.558731,168.417343 
	C197.238159,164.262299 195.930695,161.811874 191.929977,158.943085 
	C177.528000,148.615875 164.588013,136.701981 153.780518,122.572281 
	C152.699448,121.158897 151.611710,119.557907 149.144180,119.925117 
	C147.140915,123.955276 148.574188,128.137375 149.560699,131.943466 
	C150.888062,137.064575 148.885437,138.236008 143.608841,138.027985 
M485.186157,369.559723 
	C489.793518,361.453369 488.861572,352.967377 487.174194,344.315887 
	C483.952484,327.797302 477.229950,312.617554 469.750580,297.715088 
	C468.455658,295.134979 467.877838,292.099457 465.214020,289.627228 
	C460.586975,295.187561 458.179840,301.164642 458.156982,308.037018 
	C458.101685,324.666290 457.927094,341.304871 460.466400,357.816010 
	C461.779846,366.356140 461.245941,374.932098 460.457275,384.711700 
	C464.721313,380.155853 467.627502,375.964020 468.349335,371.108368 
	C471.145264,352.300812 472.354248,333.452637 467.872498,314.653534 
	C467.234100,311.975647 465.897491,309.243134 466.688629,305.513519 
	C467.459808,306.708496 467.930725,307.189728 468.117401,307.763458 
	C474.517365,327.432465 474.598969,348.372253 480.240631,368.202179 
	C480.838806,370.304810 479.918243,372.804077 481.665710,374.767212 
	C483.676147,373.684723 483.912903,371.702271 485.186157,369.559723 
M351.595123,561.155334 
	C354.431824,551.017212 357.153442,540.859436 357.530975,529.279175 
	C346.446625,533.465149 335.579407,532.010010 325.107910,532.508423 
	C324.799377,533.300476 324.536102,533.628967 324.583893,533.903381 
	C326.945343,547.462402 330.076416,560.900391 330.752472,574.722351 
	C330.852142,576.760071 331.800720,578.347046 334.369110,578.737732 
	C341.688782,579.850830 345.245026,578.037231 347.918030,571.267090 
	C349.137421,568.178589 350.212158,565.032959 351.595123,561.155334 
M278.621948,562.893127 
	C280.648773,566.896301 282.500549,571.001038 284.749969,574.875000 
	C287.171021,579.044556 297.904694,580.437927 301.363953,577.282715 
	C302.515686,576.232239 302.430725,575.008484 302.294250,573.632690 
	C301.256958,563.175903 301.416901,552.730347 302.475952,542.274597 
	C302.751892,539.550293 303.253754,536.688232 301.991852,534.034241 
	C299.986694,533.370300 298.213318,534.079834 296.506470,534.551270 
	C290.010773,536.345520 283.381348,536.450317 276.729126,536.362610 
	C274.259277,536.330017 272.133484,536.137329 272.371094,532.555542 
	C272.557800,529.742065 270.609436,530.009644 268.462219,530.920654 
	C270.194733,541.942566 274.259888,552.068848 278.621948,562.893127 
M145.885101,341.344879 
	C145.139359,345.091187 144.225723,348.813049 143.676285,352.587921 
	C140.967133,371.200958 143.135849,389.076019 152.358475,405.717590 
	C154.183594,409.010895 155.992310,412.612183 160.496368,414.502106 
	C159.138092,407.512360 155.258865,401.719971 156.084991,394.934296 
	C157.107300,396.875732 157.677383,398.930908 158.306931,400.967682 
	C160.331345,407.517487 162.884308,413.851349 167.111130,419.306030 
	C168.810043,421.498444 170.546280,424.319763 174.910675,423.076965 
	C172.811890,415.401947 170.784988,407.953339 168.716614,400.516235 
	C168.592377,400.069580 168.141830,399.711121 167.834747,399.318176 
	C158.360077,387.194550 154.575226,373.186462 153.567017,358.058990 
	C152.874939,347.674744 151.928986,337.302246 151.721756,325.440918 
	C148.333389,330.989105 147.626175,335.927124 145.885101,341.344879 
M437.549225,401.169525 
	C440.464508,403.141510 440.464508,403.141510 446.263763,397.782410 
	C447.639008,398.930298 444.937500,400.653870 447.395233,402.040680 
	C452.544800,399.414581 453.221100,393.792145 454.403595,389.014496 
	C459.834961,367.070251 457.678436,326.854431 451.057617,320.620239 
	C449.852386,322.416382 450.217407,324.471527 450.058228,326.417908 
	C449.149841,337.525055 448.428680,348.627136 446.441589,359.645569 
	C444.672424,369.455627 439.477875,378.407043 439.593872,388.658783 
	C439.639160,392.659332 438.705292,396.585846 437.549225,401.169525 
M382.582306,469.140076 
	C380.278992,472.371033 377.571594,475.343903 376.411774,479.285400 
	C375.326233,482.974457 376.690002,485.102142 380.439819,485.476288 
	C390.673340,486.497223 400.161560,484.123871 409.012360,478.967896 
	C412.133392,477.149750 411.272003,475.371460 409.016663,473.648651 
	C404.322601,470.063080 398.891235,467.999847 393.296936,466.377716 
	C384.577545,463.849396 375.394592,462.583466 368.006500,456.514862 
	C373.218353,463.035797 381.324707,464.163818 389.251984,467.498291 
	C386.416901,468.345581 384.400543,466.487091 382.582306,469.140076 
M488.861572,417.487274 
	C481.502808,422.949951 472.608185,425.185211 464.353363,429.021088 
	C473.891144,432.392792 483.276764,431.720917 492.607361,428.899933 
	C493.588562,428.603302 494.523590,427.528809 495.088898,426.581726 
	C499.227051,419.648743 501.550171,412.155365 502.234253,402.242584 
	C491.592621,411.608551 479.082642,414.263275 468.005920,419.954590 
	C477.508789,420.272034 485.161804,414.789734 494.204895,412.074585 
	C493.076111,414.842468 490.928253,415.639954 488.861572,417.487274 
M329.194580,430.901398 
	C334.513092,429.092194 338.691010,434.544342 343.898956,433.384705 
	C345.317627,426.552216 340.614746,419.462738 333.658844,418.327667 
	C328.609924,417.503784 323.472839,417.076324 318.358246,416.846405 
	C314.581451,416.676605 312.158081,418.217682 312.318054,422.719147 
	C312.407288,425.231567 313.995026,427.355469 313.039734,430.743896 
	C317.034515,428.053528 317.407440,433.034332 320.262756,432.803467 
	C323.085724,432.575195 325.883545,432.460358 329.194580,430.901398 
M364.563568,418.917664 
	C357.109467,411.758423 351.101471,410.131561 344.457031,413.895447 
	C351.629791,421.115387 360.013245,428.048889 353.121460,439.715546 
	C359.623993,441.458099 364.775177,438.786621 369.069672,432.941345 
	C372.811737,427.848022 369.629364,424.721405 366.737976,421.268982 
	C366.205200,420.632812 365.617767,420.042450 364.563568,418.917664 
M210.877274,292.250793 
	C210.566345,295.979309 206.997940,299.293274 209.189346,303.569641 
	C211.405823,303.402496 212.866806,302.245941 214.370117,301.280029 
	C219.823608,297.776062 224.946884,293.749451 230.802002,290.884827 
	C231.810883,290.391205 233.415421,290.280334 232.724426,288.649170 
	C231.880020,286.655853 230.499710,287.987701 229.408081,288.503082 
	C226.049591,290.088654 222.727524,291.751373 218.406418,293.866119 
	C220.155930,290.522339 222.347168,289.365601 224.416046,288.114899 
	C226.015457,287.147980 226.793243,286.072571 226.184570,284.032227 
	C224.352356,277.890594 222.696915,271.696198 220.539337,263.971497 
	C217.096695,274.014008 214.103058,282.746765 210.877274,292.250793 
M336.259094,385.711700 
	C332.772980,391.089447 335.816193,395.508545 338.367523,399.991516 
	C339.436646,401.870178 340.851471,401.971313 342.499786,400.723175 
	C343.825500,399.719330 345.189789,398.765045 346.494019,397.734406 
	C355.170166,390.878387 355.290833,389.605927 348.141479,380.997833 
	C343.921814,375.917236 340.783142,376.278900 337.656097,382.234558 
	C337.194061,383.114532 336.877991,384.071136 336.259094,385.711700 
M136.958313,453.637756 
	C134.486618,452.265900 132.813263,449.536255 129.646698,448.943726 
	C129.720505,457.903839 140.704208,474.484283 147.740753,476.099091 
	C148.454651,472.385406 148.883011,468.588928 149.964508,464.988647 
	C150.971436,461.636475 149.672058,459.894562 146.859848,458.772766 
	C143.610123,457.476471 140.462082,456.006165 136.958313,453.637756 
M167.094437,365.448181 
	C165.497757,358.409210 163.901077,351.370239 162.100739,343.433502 
	C156.921524,353.372467 160.726501,380.148376 167.891937,387.949341 
	C167.575653,380.568848 168.577530,373.418243 167.094437,365.448181 
M279.496399,426.833527 
	C285.393768,424.520294 285.689392,423.619110 282.305664,418.298676 
	C281.060669,416.341064 279.723816,414.433563 278.604736,412.406128 
	C276.976349,409.456024 275.106750,409.993378 273.775238,412.313385 
	C272.058563,415.304504 270.229797,418.475616 269.612946,421.786041 
	C268.976349,425.202850 269.962128,429.244659 273.278442,430.941864 
	C275.962250,432.315338 277.395721,429.106934 279.496399,426.833527 
M349.321991,528.862427 
	C358.610229,526.810242 359.699402,525.534180 358.560394,517.547913 
	C347.830170,522.182251 336.833740,525.811340 324.479523,529.259888 
	C333.464386,531.877808 340.959778,529.758301 349.321991,528.862427 
M256.566681,443.124695 
	C260.807556,445.298584 264.979126,445.245361 269.207703,443.172882 
	C266.078430,435.307068 259.254974,435.712402 252.638596,434.589447 
	C252.227386,438.161224 254.043289,440.432709 256.566681,443.124695 
M151.616501,246.141830 
	C149.790817,255.219040 146.763763,264.118591 147.257370,273.568512 
	C150.886917,259.596832 153.822327,245.522552 157.450012,231.587051 
	C156.617920,231.840195 156.264191,232.205704 156.116913,232.641068 
	C154.684174,236.876297 153.285995,241.123215 151.616501,246.141830 
M326.781189,392.422791 
	C325.448120,393.626434 323.489838,394.082428 322.634918,395.832611 
	C325.104187,402.714813 330.729706,408.399567 334.800415,408.042664 
	C333.785492,403.989380 329.258667,401.990387 328.518921,397.910919 
	C330.038940,396.571899 331.744171,398.320312 333.323425,396.704102 
	C332.718384,394.635162 332.054840,392.366119 331.442627,390.272522 
	C329.336517,390.254730 328.465973,391.398651 326.781189,392.422791 
M326.400269,469.788757 
	C328.500122,465.475616 329.022980,460.975586 328.638397,455.435883 
	C321.676239,459.259491 321.493866,465.589050 319.246216,470.864960 
	C322.088165,472.490723 323.925049,471.216431 326.400269,469.788757 
M265.455688,408.915802 
	C264.519257,410.971802 262.670898,412.637634 262.711487,415.206329 
	C265.913391,417.789612 267.941528,416.642548 269.798401,413.436646 
	C274.149689,405.924164 274.309387,404.591309 270.383759,401.915100 
	C268.259674,403.600677 267.301361,406.135559 265.455688,408.915802 
M439.003967,342.714081 
	C439.003967,340.567657 439.003967,338.421204 439.003967,336.274780 
	C437.836334,345.015533 431.235687,353.477570 437.662292,363.679169 
	C439.506989,356.385132 438.833099,349.980133 439.003967,342.714081 
M345.958008,446.270386 
	C343.227112,445.537292 340.222382,446.241180 340.731476,449.151550 
	C341.502716,453.560303 343.756836,457.709686 345.380920,461.969238 
	C345.701721,461.826080 346.022491,461.682922 346.343262,461.539734 
	C346.343262,456.658661 346.343262,451.777588 345.958008,446.270386 
M230.354782,439.413330 
	C229.200394,438.936737 228.256378,437.750183 226.480026,438.450684 
	C226.193405,440.837891 225.947388,443.579590 228.486160,444.842926 
	C231.273727,446.230011 234.399078,446.314087 237.129333,443.857391 
	C235.630310,441.307495 232.915161,441.105408 230.354782,439.413330 
M483.589478,266.052032 
	C485.991608,264.787598 488.393738,263.523163 490.795868,262.258698 
	C486.120911,262.536743 482.611725,267.066071 478.038788,265.109528 
	C474.106354,271.213715 466.409454,271.545990 461.844910,276.353241 
	C468.872955,273.031311 475.901031,269.709351 483.589478,266.052032 
M288.511719,533.822693 
	C291.481628,533.330383 294.451538,532.838074 297.421478,532.345764 
	C290.561096,533.382141 283.592285,529.752197 275.698700,532.235657 
	C280.238983,535.295410 283.947815,534.655823 288.511719,533.822693 
M350.689911,406.378845 
	C348.190491,407.140503 344.737549,405.822357 342.962891,410.359375 
	C347.996704,409.732025 352.285797,409.197510 357.147552,408.591583 
	C355.460358,405.655487 353.320465,406.494568 350.689911,406.378845 
M266.436035,387.099182 
	C269.984741,391.883728 273.533447,396.668304 277.082153,401.452850 
	C277.484894,401.130493 277.887634,400.808105 278.290375,400.485718 
	C272.928070,393.477448 267.565765,386.469177 262.203461,379.460907 
	C261.905426,379.688263 261.607361,379.915588 261.309326,380.142944 
	C262.868225,382.279144 264.427124,384.415344 266.436035,387.099182 
M317.150574,378.517700 
	C316.054169,379.625122 314.109619,380.018860 314.067474,382.017883 
	C315.667358,383.539337 317.312103,381.565857 318.952393,382.262756 
	C318.879364,382.984436 318.806946,383.700012 318.697174,384.784729 
	C321.189026,383.333893 323.642761,382.392761 325.268280,379.230103 
	C322.342773,379.109741 319.783051,379.782257 317.150574,378.517700 
M492.102783,233.311493 
	C491.292358,226.973389 490.224548,220.691772 488.062775,214.640884 
	C489.951904,224.581436 491.159027,234.618042 493.081940,244.568115 
	C492.808899,241.107269 492.535828,237.646423 492.102783,233.311493 
M171.406921,433.684723 
	C172.295776,432.056427 174.189148,430.835480 173.502930,428.354187 
	C170.935822,427.840637 168.461212,427.850647 166.039215,429.053436 
	C167.585480,433.215485 167.585480,433.215485 171.406921,433.684723 
M346.961029,230.675964 
	C346.228546,229.625122 345.496094,228.574280 344.596130,227.283173 
	C342.131104,234.995987 342.845581,236.205414 348.898285,235.214645 
	C349.380646,233.494614 347.922058,232.519913 346.961029,230.675964 
M135.873581,262.211823 
	C136.158585,261.312805 136.619446,260.427307 136.689697,259.511810 
	C136.812775,257.908112 136.325974,256.446442 134.324814,256.710907 
	C132.394775,256.965973 132.360260,258.597870 132.452576,260.092224 
	C132.558517,261.807251 133.384064,262.811981 135.873581,262.211823 
M279.310272,390.339020 
	C281.412354,393.034607 282.831909,396.391754 286.493469,397.618988 
	C284.083435,393.186737 279.971405,390.138275 277.254333,385.100006 
	C276.704773,387.813202 278.548676,388.436310 279.310272,390.339020 
M479.756592,230.587402 
	C477.289368,227.011353 474.293030,224.040863 470.305298,222.201401 
	C473.915161,224.713745 475.881134,229.056488 479.756592,230.587402 
M234.175217,283.101044 
	C235.258163,283.710510 236.306778,284.029785 237.252274,282.667908 
	C236.900848,280.625305 235.669342,279.276855 233.753082,278.343689 
	C232.686737,279.853241 233.362106,281.227997 234.175217,283.101044 
M257.455597,418.546387 
	C256.665314,418.995728 255.489838,419.042542 255.527252,420.590271 
	C257.712250,421.505646 259.710876,421.834381 261.244965,419.466736 
	C260.385925,417.767426 259.136871,418.426971 257.455597,418.546387 
z"/>
<path fill="#000000" opacity="1.000000" stroke="none" 
	d="
M404.552307,221.511078 
	C409.343079,219.112442 413.812561,216.896927 418.267090,214.651764 
	C420.553955,213.499130 422.865051,212.834061 424.097687,215.847595 
	C425.268951,218.711105 428.671600,222.119507 424.855347,224.762634 
	C416.239075,230.730240 406.763306,235.269211 397.212769,239.587646 
	C395.922119,240.171219 395.085327,239.514313 394.231537,238.539001 
	C389.853577,233.537949 390.551483,229.006195 396.282196,225.878510 
	C398.910339,224.444107 401.576111,223.078659 404.552307,221.511078 
z"/>
<path fill="#000000" opacity="1.000000" stroke="none" 
	d="
M192.219452,238.290649 
	C190.011963,236.892868 188.901321,234.609253 186.670395,233.824478 
	C183.386826,234.382355 183.590317,239.100296 178.714386,239.333649 
	C181.960434,233.918350 184.915009,228.670578 178.600037,223.685242 
	C182.979507,222.548508 183.567856,226.182114 185.942062,226.831161 
	C188.663345,225.874191 188.858292,221.568115 192.386414,221.501663 
	C193.719803,222.980713 192.798859,224.235306 191.939194,225.102478 
	C188.601669,228.469086 189.287201,231.305603 192.468231,234.368240 
	C193.298599,235.167709 196.382538,237.088867 192.219452,238.290649 
z"/>
<path fill="#000000" opacity="1.000000" stroke="none" 
	d="
M421.019958,331.472260 
	C421.320068,327.033112 421.061035,322.883484 422.895966,318.851624 
	C426.759918,320.468201 428.202484,323.899414 430.661713,326.252991 
	C431.656158,327.204742 431.399048,328.410095 430.387390,329.322296 
	C428.660004,330.879944 426.970764,332.496277 425.122314,333.899292 
	C422.577942,335.830566 421.622192,334.154449 421.019958,331.472260 
z"/>
<path fill="#000000" opacity="1.000000" stroke="none" 
	d="
M273.016418,130.642746 
	C274.392670,132.039688 272.929260,132.431824 272.286041,132.889023 
	C264.378235,138.509796 257.395996,145.146622 250.804321,152.225174 
	C250.399323,152.660065 249.820587,152.933182 248.909164,152.817139 
	C255.027740,143.469101 261.278198,134.289703 273.016418,130.642746 
z"/>
<path fill="#000000" opacity="1.000000" stroke="none" 
	d="
M364.261841,195.728058 
	C356.594391,187.339340 349.158051,179.218140 341.721680,171.096939 
	C342.046234,170.805130 342.370789,170.513306 342.695343,170.221481 
	C353.430023,180.105255 363.483276,190.610016 371.467651,203.015213 
	C368.119019,201.682968 366.802765,198.345367 364.261841,195.728058 
z"/>
<path fill="#000000" opacity="1.000000" stroke="none" 
	d="
M363.370850,239.746155 
	C365.616943,244.412155 369.198822,247.979065 370.190460,252.923218 
	C365.919037,246.930893 360.768066,241.511963 359.156158,233.743790 
	C360.495544,235.644669 361.834930,237.545547 363.370850,239.746155 
z"/>
<path fill="#000000" opacity="1.000000" stroke="none" 
	d="
M272.136414,462.427399 
	C273.148132,457.940918 271.881226,453.534790 273.407837,449.692749 
	C275.661194,448.522583 277.384155,451.485352 279.654816,449.557709 
	C280.617279,448.740601 281.579803,450.830139 281.805939,452.159485 
	C282.427277,455.811554 281.632660,459.395538 281.204468,462.993134 
	C280.979462,464.883606 279.561676,465.468567 277.988739,465.326355 
	C275.815063,465.129852 272.706024,466.813324 272.136414,462.427399 
z"/>
<path fill="#000000" opacity="1.000000" stroke="none" 
	d="
M359.943390,478.006775 
	C356.211273,476.202606 356.414642,475.139526 361.165192,471.024231 
	C362.581329,473.657318 362.750305,475.897919 359.943390,478.006775 
z"/>
</svg>